<?xml version="1.0" encoding="UTF-8" standalone="no"?>
<svg width="15px" height="12px" viewBox="0 0 15 12" version="1.1" xmlns="http://www.w3.org/2000/svg" xmlns:xlink="http://www.w3.org/1999/xlink" xmlns:sketch="http://www.bohemiancoding.com/sketch/ns">
    <!-- Generator: Sketch 3.5.2 (25235) - http://www.bohemiancoding.com/sketch -->
    <title>Group 7</title>
    <desc>Created with Sketch.</desc>
    <defs></defs>
    <g id="Page-1" stroke="none" stroke-width="1" fill="none" fill-rule="evenodd" sketch:type="MSPage">
        <g id="Welcome---Partners-&amp;-Field" sketch:type="MSArtboardGroup" transform="translate(-939.000000, -433.000000)" fill="#1D71DA">
            <g id="Group-7" sketch:type="MSLayerGroup" transform="translate(939.000000, 433.000000)">
                <g id="Group-Copy-4" sketch:type="MSShapeGroup">
                    <path d="M2.47787611,1.22123894 C2.46607664,0.867254867 2.34218407,0.575222389 2.10619469,0.345132743 C1.87020531,0.115043097 1.57817283,0 1.2300885,0 C0.882004159,0 0.589971681,0.115043097 0.353982301,0.345132743 C0.11799292,0.575222389 1.63749709e-16,0.867254867 0,1.22123894 C1.63749709e-16,1.57522301 0.11799292,1.86725549 0.353982301,2.09734513 C0.589971681,2.32743478 0.882004159,2.44247788 1.2300885,2.44247788 C1.57817283,2.44247788 1.87020531,2.32743478 2.10619469,2.09734513 C2.34218407,1.86725549 2.46607664,1.57522301 2.47787611,1.22123894 L2.47787611,1.22123894 Z M1.22123894,4.56637168 C0.879054336,4.57817115 0.589971681,4.69911389 0.353982301,4.92920354 C0.11799292,5.15929319 1.63749709e-16,5.45132566 0,5.80530973 C1.63749709e-16,6.15929381 0.11799292,6.45132628 0.353982301,6.68141593 C0.589971681,6.91150558 0.882004159,7.02654867 1.2300885,7.02654867 C1.57817283,7.02654867 1.87020531,6.91150558 2.10619469,6.68141593 C2.34218407,6.45132628 2.46017699,6.15929381 2.46017699,5.80530973 C2.46017699,5.45132566 2.34218407,5.15929319 2.10619469,4.92920354 C1.87020531,4.69911389 1.57522301,4.57817115 1.22123894,4.56637168 L1.22123894,4.56637168 Z M1.22123894,9.15044248 C0.879054336,9.16224195 0.589971681,9.28318469 0.353982301,9.51327434 C0.11799292,9.74336398 1.63749709e-16,10.0353965 0,10.3893805 C1.63749709e-16,10.7433646 0.11799292,11.0353971 0.353982301,11.2654867 C0.589971681,11.4955764 0.882004159,11.6106195 1.2300885,11.6106195 C1.57817283,11.6106195 1.87020531,11.4955764 2.10619469,11.2654867 C2.34218407,11.0353971 2.46017699,10.7433646 2.46017699,10.3893805 C2.46017699,10.0353965 2.34218407,9.74336398 2.10619469,9.51327434 C1.87020531,9.28318469 1.57522301,9.16224195 1.22123894,9.15044248 L1.22123894,9.15044248 Z M12.9380531,1.22123894 C12.9262536,0.961650619 12.8348091,0.74631354 12.6637168,0.575221239 C12.4926245,0.404128938 12.2772874,0.312684425 12.0176991,0.300884956 L4.49557522,0.300884956 C4.2359869,0.312684425 4.02064982,0.404128938 3.84955752,0.575221239 C3.67846522,0.74631354 3.59292035,0.961650619 3.59292035,1.22123894 C3.59292035,1.48082726 3.67846522,1.69616434 3.84955752,1.86725664 C4.02064982,2.03834894 4.2359869,2.12979345 4.49557522,2.14159292 L12.0176991,2.14159292 C12.2772874,2.12979345 12.4926245,2.03834894 12.6637168,1.86725664 C12.8348091,1.69616434 12.9262536,1.48082726 12.9380531,1.22123894 L12.9380531,1.22123894 Z M12.9380531,10.3893805 C12.9262536,10.1297922 12.8348091,9.91445513 12.6637168,9.74336283 C12.4926245,9.57227053 12.2772874,9.48082602 12.0176991,9.46902655 L4.49557522,9.46902655 C4.2359869,9.48082602 4.02064982,9.57227053 3.84955752,9.74336283 C3.67846522,9.91445513 3.59292035,10.1297922 3.59292035,10.3893805 C3.59292035,10.6489688 3.67846522,10.8643059 3.84955752,11.0353982 C4.02064982,11.2064905 4.2359869,11.297935 4.49557522,11.3097345 L12.0176991,11.3097345 C12.2772874,11.297935 12.4926245,11.2064905 12.6637168,11.0353982 C12.8348091,10.8643059 12.9262536,10.6489688 12.9380531,10.3893805 L12.9380531,10.3893805 Z M15.0265487,5.80530973 C15.0147492,5.54572142 14.9233047,5.33038434 14.7522124,5.15929204 C14.5811201,4.98819973 14.365783,4.89675522 14.1061947,4.88495575 L4.49557522,4.88495575 C4.2359869,4.89675522 4.02064982,4.98819973 3.84955752,5.15929204 C3.67846522,5.33038434 3.59292035,5.54572142 3.59292035,5.80530973 C3.59292035,6.06489805 3.67846522,6.28023513 3.84955752,6.45132743 C4.02064982,6.62241973 4.2359869,6.71386425 4.49557522,6.72566372 L14.1061947,6.72566372 C14.365783,6.71386425 14.5811201,6.62241973 14.7522124,6.45132743 C14.9233047,6.28023513 15.0147492,6.06489805 15.0265487,5.80530973 L15.0265487,5.80530973 Z" id="icon"></path>
                </g>
            </g>
        </g>
    </g>
</svg>