<?xml version="1.0" encoding="UTF-8" standalone="no"?>
<svg width="15px" height="15px" viewBox="0 0 15 15" version="1.1" xmlns="http://www.w3.org/2000/svg" xmlns:xlink="http://www.w3.org/1999/xlink">
    <!-- Generator: Sketch 3.6 (26304) - http://www.bohemiancoding.com/sketch -->
    <title>icon-cog</title>
    <desc>Created with Sketch.</desc>
    <defs></defs>
    <g id="Page-1" stroke="none" stroke-width="1" fill="none" fill-rule="evenodd">
        <g id="Success-Plan-First-Run---Step-4" transform="translate(-943.000000, -343.000000)">
            <g id="Content---Panel" transform="translate(292.000000, 200.000000)">
                <g id="Plan" transform="translate(20.000000, 87.000000)">
                    <g id="Command-Bar" transform="translate(0.000000, 38.000000)">
                        <g id="Icon-More-Small-gear" transform="translate(619.000000, 5.000000)">
                            <rect id="Rectangle-131" x="0" y="0" width="40" height="40"></rect>
                            <path d="M24.8518919,20.3686486 C24.8518919,19.9535114 24.8057662,19.5441462 24.7135135,19.1405405 L26.3740541,17.8778378 L25.1286486,15.7502703 L23.2778378,16.4594595 C22.9895481,16.1596381 22.6609027,15.8944156 22.2918919,15.6637838 L22.5686486,13.6227027 L20.1816216,13 L19.3859459,14.7816216 C18.9592771,14.77009 18.526849,14.8162157 18.0886486,14.92 L16.8605405,13.3286486 L14.732973,14.5740541 L15.4248649,16.3556757 C15.113512,16.655497 14.836758,17.0014395 14.5945946,17.3935135 L12.6227027,17.1340541 L12,19.5210811 L13.747027,20.2994595 C13.747027,20.7491914 13.7989184,21.1873853 13.9027027,21.6140541 L12.3286486,22.8421622 L13.5567568,24.9697297 L15.3902703,24.2605405 C15.6554968,24.5257671 15.9495479,24.7621611 16.2724324,24.9697297 L15.9437838,26.9762162 L18.2962162,27.6854054 L19.1610811,25.8691892 C19.6454078,25.8807208 20.1124302,25.8345951 20.5621622,25.7308108 L21.8248649,27.3740541 L23.9524324,26.1459459 L23.2259459,24.2432432 C23.5142357,23.9549535 23.7679268,23.6378396 23.987027,23.2918919 L26.08,23.5686486 L26.7027027,21.1816216 L24.8518919,20.3686486 Z M20.9945946,17.3243243 C21.8364006,17.8201827 22.3870257,18.5034191 22.6464865,19.3740541 C22.9059472,20.244689 22.8108131,21.1181938 22.3610811,21.9945946 C21.8767543,22.8364006 21.1964008,23.3870257 20.32,23.6464865 C19.4435992,23.9059472 18.5729773,23.8165788 17.7081081,23.3783784 C16.8663021,22.88252 16.315677,22.1992836 16.0562162,21.3286486 C15.7967555,20.4580137 15.8861239,19.5845089 16.3243243,18.7081081 C16.8201827,17.8663021 17.5034191,17.315677 18.3740541,17.0562162 C19.244689,16.7967555 20.1181938,16.8861239 20.9945946,17.3243243 L20.9945946,17.3243243 Z M20.4583784,20.9394595 C20.6198206,20.6281066 20.6544149,20.3109926 20.5621622,19.9881081 C20.4699094,19.6652236 20.2681097,19.4115325 19.9567568,19.227027 C19.6338723,19.0655848 19.3109926,19.0338734 18.9881081,19.1318919 C18.6652236,19.2299104 18.420181,19.434593 18.252973,19.7459459 C18.0857649,20.0572989 18.0482878,20.3744128 18.1405405,20.6972973 C18.2327933,21.0201818 18.434593,21.273873 18.7459459,21.4583784 C19.0572989,21.6198206 19.3772957,21.651532 19.7059459,21.5535135 C20.0345962,21.455495 20.2854045,21.2508124 20.4583784,20.9394595 L20.4583784,20.9394595 Z" id="icon" fill="#FFFFFF"></path>
                        </g>
                    </g>
                </g>
            </g>
        </g>
    </g>
</svg>