<?xml version="1.0" encoding="UTF-8" standalone="no"?>
<svg width="24px" height="17px" viewBox="0 0 24 17" version="1.1" xmlns="http://www.w3.org/2000/svg" xmlns:xlink="http://www.w3.org/1999/xlink" xmlns:sketch="http://www.bohemiancoding.com/sketch/ns">
    <!-- Generator: Sketch 3.5.2 (25235) - http://www.bohemiancoding.com/sketch -->
    <title>icon-library</title>
    <desc>Created with Sketch.</desc>
    <defs></defs>
    <g id="Page-1" stroke="none" stroke-width="1" fill="none" fill-rule="evenodd" sketch:type="MSPage">
        <g id="Success-Plan---Overview" sketch:type="MSArtboardGroup" transform="translate(-486.000000, -344.000000)" fill="#FFFFFF">
            <g id="Content---Panel" sketch:type="MSLayerGroup" transform="translate(292.000000, 199.000000)">
                <g id="Plan" transform="translate(20.000000, 87.000000)" sketch:type="MSShapeGroup">
                    <g id="Command-Bar" transform="translate(0.000000, 38.000000)">
                        <path d="M179.386798,20.4180558 L175.713977,20.4180558 C175.488974,20.4180558 175.300371,20.4974674 175.148164,20.6562929 C174.995956,20.8151184 174.913235,21.0070296 174.9,21.2320324 L174.9,35.3674302 C174.913235,35.6056684 174.995956,35.8041973 175.148164,35.9630228 C175.300371,36.1218483 175.488974,36.2012598 175.713977,36.2012598 L179.386798,36.2012598 C179.6118,36.2012598 179.803712,36.1218483 179.962537,35.9630228 C180.121363,35.8041973 180.200774,35.6056684 180.200774,35.3674302 L180.200774,21.2320324 C180.200774,21.0070296 180.121363,20.8151184 179.962537,20.6562929 C179.803712,20.4974674 179.6118,20.4180558 179.386798,20.4180558 L179.386798,20.4180558 Z M179.446357,25.1827967 C179.446357,25.3416221 179.396725,25.4706659 179.297459,25.5699318 C179.198193,25.6691978 179.069149,25.71883 178.910324,25.71883 L176.25001,25.71883 C176.091184,25.71883 175.962141,25.6691978 175.862875,25.5699318 C175.763609,25.4706659 175.713977,25.3416221 175.713977,25.1827967 L175.713977,24.7261757 C175.713977,24.5673502 175.763609,24.4383064 175.862875,24.3390405 C175.962141,24.2397745 176.091184,24.1901423 176.25001,24.1901423 L178.910324,24.1901423 C179.069149,24.1901423 179.198193,24.2397745 179.297459,24.3390405 C179.396725,24.4383064 179.446357,24.5673502 179.446357,24.7261757 L179.446357,25.1827967 Z M179.446357,22.9393978 C179.446357,23.0982233 179.396725,23.2272671 179.297459,23.326533 C179.198193,23.425799 179.069149,23.4754312 178.910324,23.4754312 L176.25001,23.4754312 C176.091184,23.4754312 175.962141,23.425799 175.862875,23.326533 C175.763609,23.2272671 175.713977,23.0982233 175.713977,22.9393978 L175.713977,22.4827769 C175.713977,22.3239514 175.763609,22.1949076 175.862875,22.0956417 C175.962141,21.9963757 176.091184,21.9467435 176.25001,21.9467435 L178.910324,21.9467435 C179.069149,21.9467435 179.198193,21.9963757 179.297459,22.0956417 C179.396725,22.1949076 179.446357,22.3239514 179.446357,22.4827769 L179.446357,22.9393978 Z M185.362577,20.4180558 L181.709609,20.4180558 C181.471371,20.4180558 181.272842,20.4974674 181.114016,20.6562929 C180.955191,20.8151184 180.875779,21.0070296 180.875779,21.2320324 L180.875779,35.3674302 C180.875779,35.6056684 180.955191,35.8041973 181.114016,35.9630228 C181.272842,36.1218483 181.471371,36.2012598 181.709609,36.2012598 L185.362577,36.2012598 C185.600815,36.2012598 185.796035,36.1218483 185.948243,35.9630228 C186.100451,35.8041973 186.176553,35.6056684 186.176553,35.3674302 L186.176553,21.2320324 C186.176553,21.0070296 186.100451,20.8151184 185.948243,20.6562929 C185.796035,20.4974674 185.600815,20.4180558 185.362577,20.4180558 L185.362577,20.4180558 Z M185.422136,25.1827967 C185.422136,25.3416221 185.372504,25.4706659 185.273238,25.5699318 C185.173972,25.6691978 185.051546,25.71883 184.905956,25.71883 L182.225789,25.71883 C182.066964,25.71883 181.93792,25.6691978 181.838654,25.5699318 C181.739388,25.4706659 181.689756,25.3416221 181.689756,25.1827967 L181.689756,24.7261757 C181.689756,24.5673502 181.742697,24.4383064 181.84858,24.3390405 C181.954464,24.2397745 182.080199,24.1901423 182.225789,24.1901423 L184.905956,24.1901423 C185.051546,24.1901423 185.173972,24.2397745 185.273238,24.3390405 C185.372504,24.4383064 185.422136,24.5673502 185.422136,24.7261757 L185.422136,25.1827967 Z M185.422136,22.9393978 C185.422136,23.0982233 185.372504,23.2272671 185.273238,23.326533 C185.173972,23.425799 185.051546,23.4754312 184.905956,23.4754312 L182.225789,23.4754312 C182.066964,23.4754312 181.93792,23.425799 181.838654,23.326533 C181.739388,23.2272671 181.689756,23.0982233 181.689756,22.9393978 L181.689756,22.4827769 C181.689756,22.3239514 181.742697,22.1949076 181.84858,22.0956417 C181.954464,21.9963757 182.080199,21.9467435 182.225789,21.9467435 L184.905956,21.9467435 C185.051546,21.9467435 185.173972,21.9963757 185.273238,22.0956417 C185.372504,22.1949076 185.422136,22.3239514 185.422136,22.4827769 L185.422136,22.9393978 Z M190.544232,20.2790842 L187.24862,21.8474781 C187.036853,21.9401263 186.894574,22.0923318 186.821779,22.3040991 C186.748984,22.5158664 186.75891,22.7276305 186.851558,22.9393978 L192.84719,35.7247857 C192.953074,35.9233176 193.111897,36.0622878 193.323665,36.1417006 C193.535432,36.2211133 193.747196,36.2144957 193.958963,36.1218475 L197.254576,34.5534536 C197.466343,34.4608054 197.608622,34.3085999 197.681417,34.0968326 C197.754212,33.8850653 197.744286,33.6733012 197.651637,33.4615338 L191.636152,20.676146 C191.543504,20.4643786 191.391298,20.3220996 191.179531,20.2493046 C190.967764,20.1765096 190.756,20.186436 190.544232,20.2790842 L190.544232,20.2790842 Z M192.64866,24.567351 C192.701601,24.6997055 192.70491,24.8320581 192.658586,24.9644127 C192.612262,25.0967673 192.522924,25.2026493 192.390569,25.2820621 L189.968493,26.413688 C189.836138,26.4666299 189.703786,26.4699387 189.571431,26.4236146 C189.439077,26.3772905 189.333194,26.2879525 189.253782,26.1555979 L189.075104,25.7386831 C189.008927,25.5930931 188.999,25.4541228 189.045324,25.3217683 C189.091648,25.1894137 189.180986,25.0901492 189.313341,25.023972 L191.735418,23.892346 C191.867772,23.8394042 192.000125,23.8327866 192.132479,23.8724929 C192.264834,23.9121993 192.370716,24.0048461 192.450129,24.1504361 L192.64866,24.567351 Z M191.675858,22.522483 C191.742036,22.6680731 191.751962,22.8070433 191.705638,22.9393978 C191.659314,23.0717524 191.569976,23.1710169 191.437621,23.2371941 L189.015545,24.3688201 C188.88319,24.4349974 188.750838,24.4449238 188.618483,24.3985997 C188.486128,24.3522756 188.380246,24.25632 188.300834,24.11073 L188.102303,23.6938151 C188.049361,23.5614606 188.046052,23.429108 188.092376,23.2967534 C188.1387,23.1643988 188.228038,23.0651344 188.360393,22.9989571 L190.782469,21.8673312 C190.914824,21.8011539 191.047177,21.7912274 191.179531,21.8375515 C191.311886,21.8838756 191.41115,21.9732136 191.477327,22.1055682 L191.675858,22.522483 Z" id="icon"></path>
                    </g>
                </g>
            </g>
        </g>
    </g>
</svg>