<?xml version="1.0" encoding="UTF-8" standalone="no"?>
<svg width="35px" height="24px" viewBox="0 0 35 24" version="1.1" xmlns="http://www.w3.org/2000/svg" xmlns:xlink="http://www.w3.org/1999/xlink">
    <!-- Generator: Sketch 3.6 (26304) - http://www.bohemiancoding.com/sketch -->
    <title>icon-customer</title>
    <desc>Created with Sketch.</desc>
    <defs></defs>
    <g id="Page-1" stroke="none" stroke-width="1" fill="none" fill-rule="evenodd">
        <g id="Partners-&amp;-Field---Invite-Customer-Step-4" transform="translate(-463.000000, -90.000000)">
            <g id="Panel" transform="translate(439.000000, 51.000000)">
                <g id="Panel-Header">
                    <g id="Panel-Header---Base"></g>
                </g>
                <g id="Icon" transform="translate(24.000000, 39.000000)" fill="#333333">
                    <path d="M3.26217949,0.888888889 C2.71564103,0.888888889 2.02371795,1.02666667 1.75807692,1.28977778 C1.68987179,1.35733333 1.61538462,1.42666667 1.53820513,1.49955556 C1.22320513,1.79288889 0.897435897,2.09688889 0.897435897,2.40533333 L0.897435897,21.0871111 C0.897435897,21.3857778 1.21961538,21.8835556 1.75807692,22.4168889 C2.07576923,22.7315556 2.81705128,23.1111111 3.26217949,23.1111111 L32.62,23.1111111 C32.984359,23.1111111 33.2966667,22.8008889 33.6269231,22.472 C33.9383333,22.1644444 34.1025641,21.6426667 34.1025641,21.0871111 L34.1025641,2.40533333 C34.1025641,1.90844444 33.9805128,1.58577778 33.6825641,1.28888889 C33.3882051,0.997333333 33.1001282,0.888888889 32.62,0.888888889 L3.26217949,0.888888889 Z M32.62,24 L3.26217949,24 C2.53615385,24 1.58666667,23.504 1.12358974,23.0453333 C0.377820513,22.3066667 0,21.648 0,21.0871111 L0,2.40533333 C0,1.71377778 0.511538462,1.23644444 0.922564103,0.852444444 L1.12269231,0.662222222 C1.75807692,0.032 3.01628205,0 3.26217949,0 L32.62,0 C33.3424359,0 33.8503846,0.197333333 34.3179487,0.661333333 C34.79,1.13066667 35,1.66844444 35,2.40533333 L35,21.0871111 C35,21.8897778 34.7451282,22.6222222 34.3179487,23.0453333 C33.859359,23.5004444 33.3576923,24 32.62,24 L32.62,24 Z" id="Fill-1"></path>
                    <path d="M10.4595935,11.9207501 C11.1033299,12.0792163 11.721563,12.000436 12.3142929,11.680787 C12.9079023,11.3638545 13.3326628,10.958181 13.5903332,10.4673885 C13.848883,9.97659602 13.9843139,9.45139371 13.9983847,8.89449815 C14.0106965,8.33669708 13.9526547,7.84590457 13.8233798,7.42212064 C13.6941049,6.99743118 13.5006322,6.61167914 13.2429618,6.26667555 C12.4954537,5.33851629 11.6257061,4.92016549 10.6328395,5.01252865 C9.63997291,5.10489182 8.88630889,5.68351988 8.37184746,6.74479076 C7.75185547,8.17823086 7.90751304,9.51840228 8.83618188,10.765305 C9.27325425,11.3765318 9.81409832,11.7622839 10.4595935,11.9207501" id="Fill-4"></path>
                    <path d="M14.3836361,12.2027072 C14.0563582,12.0978832 13.7569733,12.0508931 13.4836218,12.0635443 C13.2112001,12.0761955 12.9378487,12.2027072 12.6672865,12.4403684 C12.2842226,12.758455 11.8751252,12.9961163 11.4390645,13.1569669 C11.0030039,13.3151065 10.5260335,13.3413125 10.0090831,13.2355848 C9.27363753,13.0774452 8.64604491,12.7720098 8.12909455,12.3219896 C7.90966958,12.0834247 7.63817766,11.9776971 7.31089973,12.0039031 C6.6303104,12.0834247 6.04920612,12.3219896 5.57409527,12.7186942 C5.09619511,13.1163024 4.77728508,13.633193 4.61178658,14.2693661 C4.44907739,15.0365692 4.32634816,15.8661245 4.24452868,16.6333276 C4.1627092,17.4032416 4.08181948,18.096345 4,19 L17,19 C16.8902875,17.19269 16.6996853,16.0387226 16.4281934,14.6082368 C16.2915177,13.4163158 15.6099986,12.5732057 14.3836361,12.2027072" id="Fill-6"></path>
                    <path d="M22,17 L32,17 L32,15 L22,15 L22,17 Z" id="Fill-8"></path>
                    <path d="M22,8 L32,8 L32,6 L22,6 L22,8 Z" id="Fill-10"></path>
                    <path d="M22,13 L32,13 L32,11 L22,11 L22,13 Z" id="Fill-11"></path>
                </g>
            </g>
        </g>
    </g>
</svg>