<?xml version="1.0" encoding="UTF-8" standalone="no"?>
<svg width="18px" height="17px" viewBox="0 0 18 17" version="1.1" xmlns="http://www.w3.org/2000/svg" xmlns:xlink="http://www.w3.org/1999/xlink" xmlns:sketch="http://www.bohemiancoding.com/sketch/ns">
    <!-- Generator: Sketch 3.5.2 (25235) - http://www.bohemiancoding.com/sketch -->
    <title>Icon</title>
    <desc>Created with Sketch.</desc>
    <defs></defs>
    <g id="Page-1" stroke="none" stroke-width="1" fill="none" fill-rule="evenodd" sketch:type="MSPage">
        <g id="Partners-&amp;-Field---Success-Plan---Intent" sketch:type="MSArtboardGroup" transform="translate(-889.000000, -273.000000)" fill="#1D71DA">
            <g id="Content---Panel" sketch:type="MSLayerGroup" transform="translate(292.000000, 200.000000)">
                <g id="Panel---Customer" transform="translate(19.000000, 58.000000)" sketch:type="MSShapeGroup">
                    <g id="Return" transform="translate(578.000000, 13.000000)">
                        <path d="M11.13,5.486 L11.109,5.486 L5.082,5.507 L8.799,2 L5.187,2 L0,6.914 L5.187,11.786 L8.799,11.786 L5.082,8.3 L11.13,8.279 C12.2360055,8.30700014 13.1599963,8.69199629 13.902,9.434 C14.6440037,10.1760037 15.0289999,11.0999945 15.057,12.206 C15.0289999,13.3120055 14.6440037,14.2359963 13.902,14.978 C13.1599963,15.7200037 12.2360055,16.1049999 11.13,16.133 L11.13,18.926 C13.0340095,18.8839998 14.6194937,18.2295063 15.8865,16.9625 C17.1535063,15.6954937 17.8079998,14.1100095 17.85,12.206 C17.8079998,10.3019905 17.1535063,8.71650634 15.8865,7.4495 C14.6194937,6.18249366 13.0340095,5.52800021 11.13,5.486 L11.13,5.486 Z" id="Icon"></path>
                    </g>
                </g>
            </g>
        </g>
    </g>
</svg>