
<svg xmlns="http://www.w3.org/2000/svg" version="1.1" xmlns:xlink="http://www.w3.org/1999/xlink" preserveAspectRatio="none" x="0px" y="0px" width="80px" height="80px" viewBox="0 0 80 80">
<defs>
<g id="Symbol_2_0_Layer0_0_FILL">
<path fill="#999999" stroke="none" d="
M 5.85 5.85
Q 0 11.75 0 20.1 0 28.45 5.85 34.3 11.75 40.2 20.1 40.2 28.45 40.2 34.3 34.3 40.2 28.45 40.2 20.1 40.2 11.75 34.3 5.85 28.45 0 20.1 0 11.75 0 5.85 5.85 Z"/>
</g>

<path id="Symbol_1_0_Layer0_0_1_STROKES" stroke="#CCCCCC" stroke-width="1" stroke-linejoin="round" stroke-linecap="round" fill="none" d="
M 60 30
Q 60 42.45 51.25 51.2 42.45 60 30 60 17.55 60 8.8 51.2 0 42.45 0 30 0 17.55 8.8 8.75 17.55 0 30 0 42.45 0 51.25 8.75 60 17.55 60 30 Z"/>
</defs>

<g transform="matrix( 1, 0, 0, 1, 40,39.05) ">
<g transform="matrix( 1, 0, 0, 1, -30,-29.05) ">
<g transform="matrix( 1, 0, 0, 1, 0,0) ">
<use xlink:href="#Symbol_1_0_Layer0_0_1_STROKES"/>
</g>
</g>

<g transform="matrix( 0.15423583984375, 0, 0, 0.15423583984375, -3.65,-2.95) ">
<g transform="matrix( 1, 0, 0, 1, 0,0) ">
<use xlink:href="#Symbol_2_0_Layer0_0_FILL"/>
</g>
</g>
</g>
</svg>
