<?xml version="1.0" encoding="UTF-8" standalone="no"?>
<svg width="16px" height="17px" viewBox="0 0 16 17" version="1.1" xmlns="http://www.w3.org/2000/svg" xmlns:xlink="http://www.w3.org/1999/xlink" xmlns:sketch="http://www.bohemiancoding.com/sketch/ns">
    <!-- Generator: Sketch 3.5.2 (25235) - http://www.bohemiancoding.com/sketch -->
    <title>Fill 1</title>
    <desc>Created with Sketch.</desc>
    <defs></defs>
    <g id="Page-1" stroke="none" stroke-width="1" fill="none" fill-rule="evenodd" sketch:type="MSPage">
        <path d="M11.5,3.43 C11.34,3.27722222 11.26,3.08 11.26,2.84 L11.26,0.84 C11.26,0.6 11.34,0.4 11.5,0.24 C11.66,0.08 11.86,0 12.1,0 C12.34,0 12.54,0.08 12.7,0.24 C12.86,0.4 12.94,0.6 12.94,0.84 L12.94,2.84 C12.94,3.08 12.86,3.27722222 12.7,3.43 C12.54,3.58333333 12.34,3.66 12.1,3.66 C11.86,3.66 11.66,3.58333333 11.5,3.43 L11.5,3.43 Z M2.42,3.43 C2.58,3.58333333 2.78,3.66 3.02,3.66 C3.26,3.66 3.46,3.58333333 3.62,3.43 C3.78,3.27722222 3.86,3.08 3.86,2.84 L3.86,0.84 C3.86,0.6 3.78,0.4 3.62,0.24 C3.46,0.08 3.26,0 3.02,0 C2.78,0 2.58,0.08 2.42,0.24 C2.26,0.4 2.18,0.6 2.18,0.84 L2.18,2.84 C2.18,3.08 2.26,3.27722222 2.42,3.43 L2.42,3.43 Z M13.86,6.18 L1.26,6.18 L1.26,15.6 L13.86,15.6 L13.86,6.18 Z M3.06,4.36 C3.48666667,4.34666667 3.84333333,4.19666667 4.13,3.91 C4.41666667,3.62333333 4.56666667,3.26722222 4.58,2.84 L4.58,1.66 L10.5,1.66 L10.5,2.84 C10.5133333,3.26722222 10.6633333,3.62333333 10.95,3.91 C11.2366667,4.19666667 11.5933333,4.34666667 12.02,4.36 L12.1,4.36 C12.5266667,4.34666667 12.8833333,4.19666667 13.17,3.91 C13.4566667,3.62333333 13.6066667,3.26722222 13.62,2.84 L13.62,1.66 L14.32,1.66 C14.5466667,1.66 14.7366667,1.73722222 14.89,1.89 C15.0433333,2.04333333 15.12,2.23333333 15.12,2.46 L15.12,16.22 C15.12,16.4333333 15.0433333,16.6166667 14.89,16.77 C14.7366667,16.9233333 14.5466667,17 14.32,17 L0.8,17 C0.573333333,17 0.383333333,16.9233333 0.23,16.77 C0.0766666667,16.6166667 0,16.4333333 0,16.22 L0,2.46 C0,2.23333333 0.0766666667,2.04333333 0.23,1.89 C0.383333333,1.73722222 0.573333333,1.66 0.8,1.66 L1.46,1.66 L1.46,2.84 C1.47333333,3.26722222 1.62333333,3.62333333 1.91,3.91 C2.19666667,4.19666667 2.55333333,4.34666667 2.98,4.36 L3.06,4.36 Z" id="Fill-1" fill="#666666" sketch:type="MSShapeGroup"></path>
    </g>
</svg>