<?xml version="1.0" encoding="UTF-8" standalone="no"?>
<svg width="15px" height="15px" viewBox="0 0 15 15" version="1.1" xmlns="http://www.w3.org/2000/svg" xmlns:xlink="http://www.w3.org/1999/xlink" xmlns:sketch="http://www.bohemiancoding.com/sketch/ns">
    <!-- Generator: Sketch 3.5.2 (25235) - http://www.bohemiancoding.com/sketch -->
    <title>icon-help</title>
    <desc>Created with Sketch.</desc>
    <defs></defs>
    <g id="Page-1" stroke="none" stroke-width="1" fill="none" fill-rule="evenodd" sketch:type="MSPage">
        <g id="Success-Plan---Intent---Business-case" sketch:type="MSArtboardGroup" transform="translate(-559.000000, -611.000000)" fill="#1D71DA">
            <g id="Content---Panel" sketch:type="MSLayerGroup" transform="translate(292.000000, 199.000000)">
                <g id="Form" transform="translate(20.000000, 406.000000)" sketch:type="MSShapeGroup">
                    <g id="Help-Icon" transform="translate(247.000000, 6.000000)">
                        <path d="M7.1244,1.06706667 C5.30973333,1.11773333 3.7684,1.75506667 2.56173333,2.9604 C1.35506667,4.16706667 0.717733333,5.7084 0.667066667,7.54173333 C0.717733333,9.35773333 1.35506667,10.9004 2.56173333,12.1057333 C3.76706667,13.3124 5.30973333,13.9497333 7.14306667,14.0004 C8.95773333,13.9497333 10.4990667,13.3124 11.7057333,12.1057333 C12.9124,10.9004 13.5497333,9.35773333 13.6004,7.5244 C13.5497333,5.7084 12.9124,4.16706667 11.7057333,2.9604 C10.4990667,1.75506667 8.95773333,1.11773333 7.1244,1.06706667 M7.14306667,14.6670667 C5.11506667,14.6110667 3.4204,13.9084 2.08973333,12.5764 C0.759066667,11.2470667 0.0564,9.5524 0.0004,7.54173333 C0.0564,5.51373333 0.759066667,3.8204 2.08973333,2.48973333 C3.42173333,1.15906667 5.11506667,0.4564 7.1244,0.4004 C9.1524,0.4564 10.8457333,1.15906667 12.1777333,2.48973333 C13.5084,3.8204 14.2110667,5.51373333 14.2670667,7.5244 C14.2110667,9.5524 13.5084,11.2470667 12.1777333,12.5764 C10.8470667,13.9084 9.1524,14.6110667 7.14306667,14.6670667" id="Fill-1"></path>
                        <path d="M7.98325579,10.8524816 C7.97619275,11.1208772 7.88260744,11.3468946 7.70249986,11.5305337 C7.52239229,11.7141728 7.29460918,11.8059923 7.01915053,11.8059923 C6.74369189,11.8059923 6.51414302,11.7141728 6.33050392,11.5305337 C6.14686482,11.3468946 6.05504527,11.1191115 6.05504527,10.8471843 C6.05504527,10.5752572 6.14686482,10.3474741 6.33050392,10.163835 C6.51414302,9.9801959 6.74369189,9.88837636 7.01915053,9.88837636 C7.29460918,9.88837636 7.52239229,9.9801959 7.70249986,10.163835 C7.88260744,10.3474741 7.97619275,10.577023 7.98325579,10.8524816 M4.22218583,4.62287841 C4.44820318,4.07196112 4.78899496,3.63934979 5.24456118,3.32504441 C5.7001274,3.01073903 6.219261,2.83946026 6.80196198,2.81120809 C7.38466296,2.78295592 7.94617482,2.86947819 8.48649754,3.07077489 C9.02682027,3.27207159 9.45236856,3.63052099 9.76314242,4.14612306 C10.0386011,4.67585123 10.112763,5.21440819 9.98562825,5.76179396 C9.85849349,6.30917973 9.57244028,6.77357476 9.12746862,7.15497903 L8.44941657,7.65292351 C8.21633618,7.81537348 8.03622861,8.02726474 7.90909385,8.2885973 C7.85258951,8.4227951 7.82080582,8.56229019 7.81374278,8.70708255 C7.80667973,8.85187492 7.80314821,8.99843304 7.80314821,9.14675693 L6.15039634,9.14675693 L6.15039634,8.58524507 C6.17158547,8.3380386 6.22102677,8.09789516 6.29872023,7.86481477 C6.37641369,7.63173438 6.49295389,7.41278007 6.64834082,7.20795185 C6.83197991,7.00312363 7.03151086,6.81948453 7.24693364,6.65703456 C7.46235643,6.49458459 7.65835585,6.31447701 7.8349319,6.11671183 C8.17395793,5.65055105 8.22339922,5.20557939 7.98325579,4.78179686 C7.74311235,4.35801433 7.33345591,4.18850132 6.75428645,4.27325782 C6.5282691,4.32976216 6.33756696,4.4445366 6.18218003,4.61758113 C6.02679311,4.79062566 5.92084747,4.9901566 5.86434314,5.21617395 L5.82196488,5.54460542 C5.80077576,5.71411843 5.79371271,5.8094695 5.80077576,5.83065862 L3.9997,5.83065862 C4.01382608,5.41393914 4.08798803,5.01134573 4.22218583,4.62287841" id="Fill-1"></path>
                    </g>
                </g>
            </g>
        </g>
    </g>
</svg>