<?xml version="1.0" encoding="UTF-8" standalone="no"?>
<svg width="20px" height="18px" viewBox="0 0 20 18" version="1.1" xmlns="http://www.w3.org/2000/svg" xmlns:xlink="http://www.w3.org/1999/xlink" xmlns:sketch="http://www.bohemiancoding.com/sketch/ns">
    <!-- Generator: Sketch 3.5.2 (25235) - http://www.bohemiancoding.com/sketch -->
    <title>icon-heart</title>
    <desc>Created with Sketch.</desc>
    <defs></defs>
    <g id="Page-1" stroke="none" stroke-width="1" fill="none" fill-rule="evenodd" sketch:type="MSPage">
        <g id="Welcome---Partners-&amp;-Field-Ellipsis" sketch:type="MSArtboardGroup" transform="translate(-327.000000, -495.000000)" fill="#333333">
            <g id="Content---Panel" sketch:type="MSLayerGroup" transform="translate(292.000000, 199.000000)">
                <g id="Panel---Reports" transform="translate(20.000000, 279.000000)" sketch:type="MSShapeGroup">
                    <path d="M24.9766137,34.4380591 C27.4403379,31.9743349 29.9119188,29.5029177 32.4091976,27.0056389 C32.0183278,27.0056389 31.6158365,27.0254443 31.2162916,26.9997464 C30.8633956,26.9771584 30.6116545,27.0873156 30.3581128,27.3444582 C28.6921691,29.0344631 27.0082205,30.706463 25.3295096,32.3835371 C25.2260633,32.4868197 25.1159061,32.5832277 25.0389761,32.6549199 C22.7446615,30.3606054 20.4721166,28.0880604 18.2347629,25.8507068 C18.3717638,25.7502067 18.5550864,25.6431594 18.7046907,25.5005934 C19.0898317,25.1339483 19.4641699,24.7556818 19.8345796,24.3741418 C20.0954869,24.1053778 20.3429724,23.8236831 20.6443088,23.4958303 C22.164904,24.9905639 23.6178989,26.4186793 25.0818605,27.8577614 C26.076058,26.887625 27.1082295,25.8804967 28.1569327,24.857164 C28.3250329,25.0255916 28.5317619,25.2026943 28.7014989,25.4099142 C28.9468565,25.7092865 29.2365716,25.8066766 29.625641,25.7988199 C30.8663419,25.7736131 32.1076975,25.7826155 33.3487257,25.7948916 C33.6071778,25.7975105 33.7818253,25.7227083 33.9312659,25.5105779 C34.8675204,24.1819804 35.2225442,22.7240751 34.8606458,21.131624 C33.9396136,17.077904 28.9229591,15.6145971 25.9670465,18.5286074 C25.6504878,18.8407468 25.3244355,19.143229 24.9898718,19.4625704 C23.9536083,18.4048647 22.9351861,17.3859513 21.4371789,17.1153869 C19.9702711,16.8505513 18.5925693,17.0684105 17.3358277,17.9110395 C15.5864067,19.0841402 14.6678298,21.3118367 15.1102591,23.2434344 L16.3964633,23.2434344 C16.37764,23.1396608 16.362254,23.0735337 16.3537426,23.0064245 C16.143249,21.347028 16.6655546,19.9765282 18.0529135,19.0225962 C19.377419,18.1118759 20.8142095,18.0074476 22.2128625,18.8250334 C22.8607113,19.2037909 23.407569,19.762761 23.9758689,20.2672254 C24.3359668,20.5867305 24.6515435,20.9564855 25.0044394,21.3218212 C25.4385211,20.8656426 25.8177696,20.4561131 26.2088032,20.0583687 C27.1380194,19.1134391 28.1657715,18.3832588 29.57179,18.3416839 C32.6404787,18.2506773 34.6740496,21.4573489 33.2626296,24.1793616 C33.1410147,24.4137525 33.0048323,24.5113063 32.7298484,24.5054138 C31.8165093,24.4856084 30.902188,24.510979 29.9890125,24.4872452 C29.7973422,24.4823348 29.5631149,24.3892004 29.4282419,24.2559642 C29.0044722,23.8367775 28.6186764,23.3791259 28.1078284,22.8145906 C27.0082205,23.9742694 26.010913,25.0260826 24.922108,26.1744675 C23.4601106,24.6704041 22.0483632,23.2177365 20.5501923,21.6765176 C19.7042897,22.5628494 18.8925963,23.427248 18.0597881,24.2706955 C17.9353907,24.3967297 17.7137668,24.4808617 17.5333905,24.4877363 C16.8708104,24.5131068 16.2065935,24.4978845 15.4127413,24.4978845 C15.7235713,24.9773057 15.9188425,25.4292286 16.2421122,25.7534803 C19.1490842,28.6692911 22.0786441,31.5626776 24.9766137,34.4380591" id="Page-1"></path>
                </g>
            </g>
        </g>
    </g>
</svg>