<?xml version="1.0" encoding="UTF-8" standalone="no"?>
<svg width="13px" height="15px" viewBox="0 0 13 15" version="1.1" xmlns="http://www.w3.org/2000/svg" xmlns:xlink="http://www.w3.org/1999/xlink" xmlns:sketch="http://www.bohemiancoding.com/sketch/ns">
    <!-- Generator: Sketch 3.5.2 (25235) - http://www.bohemiancoding.com/sketch -->
    <title>Icon-list-orange</title>
    <desc>Created with Sketch.</desc>
    <defs></defs>
    <g id="Page-1" stroke="none" stroke-width="1" fill="none" fill-rule="evenodd" sketch:type="MSPage">
        <g id="Welcome---Partners-&amp;-Field-Ellipsis" sketch:type="MSArtboardGroup" transform="translate(-330.000000, -937.000000)" fill="#FF8C00">
            <g id="Content---Panel" sketch:type="MSLayerGroup" transform="translate(292.000000, 199.000000)">
                <g id="Panel---Success-Plans" transform="translate(0.000000, 661.000000)" sketch:type="MSShapeGroup">
                    <path d="M38.524,77.9358 L38.524,91.9358 L50.8110588,91.9358 L50.8110588,77.9358 L38.524,77.9358 Z M40.3028235,83.1899176 L44.6675294,83.1899176 L44.6675294,84.0628588 L40.3028235,84.0628588 L40.3028235,83.1899176 Z M40.3028235,84.9358 L44.6675294,84.9358 L44.6675294,85.8087412 L40.3028235,85.8087412 L40.3028235,84.9358 Z M40.3028235,86.6816824 L44.6675294,86.6816824 L44.6675294,87.5546235 L40.3028235,87.5546235 L40.3028235,86.6816824 Z M49.0322353,90.2063882 L44.6675294,90.2063882 L44.6675294,89.3334471 L49.0322353,89.3334471 L49.0322353,90.2063882 Z M49.0322353,81.4605059 L40.3028235,81.4605059 L40.3028235,79.7146235 L49.0322353,79.7146235 L49.0322353,81.4605059 Z" id="Icon"></path>
                </g>
            </g>
        </g>
    </g>
</svg>