<?xml version="1.0" encoding="UTF-8" standalone="no"?>
<svg width="15px" height="15px" viewBox="0 0 15 15" version="1.1" xmlns="http://www.w3.org/2000/svg" xmlns:xlink="http://www.w3.org/1999/xlink" xmlns:sketch="http://www.bohemiancoding.com/sketch/ns">
    <!-- Generator: Sketch 3.5.2 (25235) - http://www.bohemiancoding.com/sketch -->
    <title>icon</title>
    <desc>Created with Sketch.</desc>
    <defs></defs>
    <g id="Page-1" stroke="none" stroke-width="1" fill="none" fill-rule="evenodd" sketch:type="MSPage">
        <g id="Partners-&amp;-Field---Success-Plan---Intent" sketch:type="MSArtboardGroup" transform="translate(-803.000000, -214.000000)" fill="#1D71DA">
            <g id="Content---Panel" sketch:type="MSLayerGroup" transform="translate(292.000000, 200.000000)">
                <g id="Customer-Search" transform="translate(511.000000, 10.000000)" sketch:type="MSShapeGroup">
                    <path d="M5.39413681,5.60694897 C4.35757716,6.64350862 3.82193286,7.93774106 3.78718784,9.48968512 C3.79876951,10.4741273 4.03619023,11.3716934 4.49945711,12.1824104 L0.399565689,16.3344191 C0.133187231,16.6239609 0,16.956929 0,17.3333333 C0,17.7097377 0.133187231,18.036915 0.399565689,18.3148751 C0.538545755,18.4538552 0.694895983,18.5551933 0.868621064,18.6188925 C1.04234615,18.6825917 1.218964,18.7144408 1.39847991,18.7144408 C1.57799583,18.7144408 1.75461368,18.6796963 1.92833876,18.6102063 C2.10206384,18.5407163 2.25262332,18.4422735 2.38002172,18.3148751 L6.46254072,14.1802389 C6.86789924,14.4350357 7.31089155,14.6319211 7.79153094,14.7709012 C8.27217034,14.9098813 8.76727939,14.9793702 9.27687296,14.9793702 C10.828817,14.9446252 12.1230495,14.4089809 13.1596091,13.3724213 C14.1961688,12.3358616 14.7318131,11.0416292 14.7665581,9.48968512 C14.7318131,7.93774106 14.1961688,6.64350862 13.1596091,5.60694897 C12.1230495,4.57038932 10.828817,4.03474502 9.27687296,4 C7.7249289,4.03474502 6.43069646,4.57038932 5.39413681,5.60694897 Z M9.27687296,13.276873 C8.19977746,13.2537096 7.30510671,12.8831017 6.59283388,12.165038 C5.88056104,11.4469743 5.51284847,10.555199 5.48968512,9.48968512 C5.51284847,8.41258962 5.88056104,7.51791887 6.59283388,6.80564604 C7.30510671,6.0933732 8.19977746,5.72566063 9.27687296,5.70249729 C10.3423868,5.72566063 11.2341622,6.0933732 11.9522258,6.80564604 C12.6702895,7.51791887 13.0408975,8.41258962 13.0640608,9.48968512 C13.0408975,10.555199 12.6702895,11.4469743 11.9522258,12.165038 C11.2341622,12.8831017 10.3423868,13.2537096 9.27687296,13.276873 L9.27687296,13.276873 Z" id="icon"></path>
                </g>
            </g>
        </g>
    </g>
</svg>