<?xml version="1.0" encoding="UTF-8" standalone="no"?>
<svg width="17px" height="16px" viewBox="0 0 17 16" version="1.1" xmlns="http://www.w3.org/2000/svg" xmlns:xlink="http://www.w3.org/1999/xlink" xmlns:sketch="http://www.bohemiancoding.com/sketch/ns">
    <!-- Generator: Sketch 3.5.2 (25235) - http://www.bohemiancoding.com/sketch -->
    <title>icon-share</title>
    <desc>Created with Sketch.</desc>
    <defs></defs>
    <g id="Page-1" stroke="none" stroke-width="1" fill="none" fill-rule="evenodd" sketch:type="MSPage">
        <g id="Success-Plan-First-Run---Step-4" sketch:type="MSArtboardGroup" transform="translate(-872.000000, -304.000000)" fill="#1D71DA">
            <g id="Content---Panel" sketch:type="MSLayerGroup" transform="translate(292.000000, 199.000000)">
                <g id="Plan" transform="translate(20.000000, 87.000000)" sketch:type="MSShapeGroup">
                    <g id="Share" transform="translate(560.000000, 15.000000)">
                        <path d="M14.3765809,16.232508 C15.1044038,15.5172338 15.6722227,14.6890339 16.0800545,13.7478835 C16.4878864,12.8067331 16.6980735,11.790306 16.7106221,10.6985715 C16.7106221,9.73232382 16.5474918,8.82883302 16.2212264,7.98807202 C15.8196689,8.4398242 15.330278,8.78490749 14.7530391,9.02333225 C14.9036232,9.55037646 14.9789141,10.108784 14.9789141,10.6985715 C14.9789141,11.5016865 14.8346065,12.2545955 14.5459871,12.9573211 C14.2573677,13.6600467 13.8495419,14.2811967 13.3224977,14.8207895 C13.2597544,14.7831435 13.1907377,14.7454981 13.1154457,14.7078521 C12.5256581,14.4694273 11.9547021,14.4568788 11.4025606,14.6702062 C10.850419,14.8835337 10.4363191,15.2788109 10.1602483,15.8560498 C9.90927487,16.4458373 9.89358927,17.0167933 10.113191,17.5689349 C10.3327928,18.1210764 10.7312071,18.5351764 11.308446,18.8112472 C11.8982336,19.0496719 12.4691896,19.0622204 13.0213311,18.848893 C13.5734727,18.6355656 13.9875726,18.2402883 14.2636434,17.6630495 C14.4644221,17.1736513 14.5020676,16.6968089 14.3765809,16.232508 L14.3765809,16.232508 Z M13.266029,3.09411457 C12.7515335,3.09411457 12.2997881,3.25097061 11.9107792,3.5646874 C11.0072749,3.18822725 10.0410417,3 9.01205059,3 C7.80737812,3.01254867 6.69370022,3.26665546 5.67098348,3.76232799 C4.64826675,4.25800052 3.77928428,4.94502998 3.06400999,5.82343699 C3.66634623,5.96147238 4.21220526,6.21244205 4.70160345,6.57635353 C5.24119633,5.99911463 5.88116898,5.54736923 6.62154061,5.22110377 C7.36191223,4.89483831 8.15874093,4.73170802 9.01205059,4.73170802 C9.72732488,4.73170802 10.404943,4.85091862 11.0449252,5.08934338 C11.0323766,5.16463541 11.0261023,5.24620055 11.0261023,5.33404125 C11.038651,5.9740235 11.2551123,6.50419692 11.6754928,6.92457742 C12.0958733,7.34495792 12.6260467,7.56141926 13.266029,7.57396793 C13.9060113,7.56141926 14.4361847,7.34495792 14.8565652,6.92457742 C15.2769457,6.50419692 15.493407,5.9740235 15.5059557,5.33404125 C15.493407,4.694059 15.2769457,4.16388557 14.8565652,3.74350508 C14.4361847,3.32312458 13.9060113,3.10666324 13.266029,3.09411457 L13.266029,3.09411457 Z M8.24031115,16.6089663 C6.92270063,16.4207362 5.80588561,15.8874257 4.88983258,15.0090187 C3.97377956,14.1306117 3.39027508,13.0451679 3.13930165,11.7526547 L3.36517661,11.6397172 C3.90476949,11.3134517 4.24985278,10.8617063 4.40043684,10.2844674 C4.5510209,9.70722855 4.47573,9.1425468 4.17456188,8.59040525 C3.84829642,8.05081237 3.39655101,7.70259196 2.81931212,7.54573356 C2.24207323,7.38887517 1.67739147,7.46102894 1.12524992,7.76219706 C0.585657045,8.08846252 0.237436632,8.54020793 0.0805782365,9.11744682 C-0.0762801585,9.69468571 -0.00412637911,10.2656417 0.297041739,10.8303319 C0.573112515,11.2695354 0.937018533,11.5832475 1.38877071,11.7714776 C1.67739016,13.6161323 2.47735597,15.1470473 3.78869216,16.3642684 C5.10002834,17.5814896 6.69682285,18.2591077 8.57912359,18.3971431 C8.34069883,17.8324529 8.22776248,17.2363999 8.24031115,16.6089663 L8.24031115,16.6089663 Z" id="icon"></path>
                    </g>
                </g>
            </g>
        </g>
    </g>
</svg>