<?xml version="1.0" encoding="UTF-8" standalone="no"?>
<svg width="29px" height="17px" viewBox="0 0 29 17" version="1.1" xmlns="http://www.w3.org/2000/svg" xmlns:xlink="http://www.w3.org/1999/xlink" xmlns:sketch="http://www.bohemiancoding.com/sketch/ns">
    <!-- Generator: Sketch 3.5.2 (25235) - http://www.bohemiancoding.com/sketch -->
    <title>Icon</title>
    <desc>Created with Sketch.</desc>
    <defs></defs>
    <g id="Page-1" stroke="none" stroke-width="1" fill="none" fill-rule="evenodd" sketch:type="MSPage">
        <g id="Partners-&amp;-Field---Dashboard" sketch:type="MSArtboardGroup" transform="translate(-321.000000, -995.000000)" fill="#000000">
            <g id="Panel---Team" sketch:type="MSLayerGroup" transform="translate(292.000000, 977.000000)">
                <path d="M51.3282293,28.6572537 C51.4411359,28.9332476 51.5164058,29.2280548 51.5540414,29.5416843 C51.7045835,30.4198467 51.8300334,31.285451 51.9303948,32.1385231 C52.0307562,32.9915951 52.1122987,33.8195644 52.1750246,34.6224558 L52.1938422,34.7165442 L57.9708677,34.7165442 C57.8705062,33.1609421 57.7011489,31.6179084 57.4627905,30.0873968 C57.3624291,29.4475927 57.1523005,28.9207031 56.8323985,28.5067123 C56.5124964,28.0927214 56.0765581,27.7790967 55.5245702,27.5658287 C55.2109408,27.4403769 54.922406,27.3870607 54.6589573,27.4058785 C54.3955086,27.4246962 54.1320638,27.5595549 53.8686151,27.8104584 C53.5173501,28.1491782 53.1284554,28.3969417 52.7019194,28.5537565 C52.2753833,28.7105712 51.8174912,28.7450699 51.3282293,28.6572537 L51.3282293,28.6572537 Z M53.8874327,21.7511679 C53.1472673,20.8353699 52.2753905,20.4213853 51.2717763,20.5092015 C50.2681621,20.5970178 49.5029177,21.1552698 48.9760202,22.1839744 C48.3738517,23.6015794 48.5369366,24.9250758 49.4652797,26.1545032 C49.9169061,26.7190362 50.4657494,27.0797047 51.1118261,27.2365194 C51.7579027,27.3933341 52.3820159,27.3212004 52.9841845,27.0201162 C53.5612626,26.7064867 53.9783835,26.3113196 54.2355597,25.8346028 C54.4927358,25.3578861 54.633867,24.862359 54.6589573,24.3480067 C54.6589573,23.7834737 54.5930961,23.2942191 54.4613718,22.8802282 C54.3296474,22.4662374 54.1383363,22.0898877 53.8874327,21.7511679 L53.8874327,21.7511679 Z M32.8869103,24.3480067 C32.9120007,24.862359 33.0531318,25.3578861 33.310308,25.8346028 C33.5674841,26.3113196 33.984605,26.7064867 34.5616832,27.0201162 C35.1638517,27.3212004 35.7879649,27.3933341 36.4340416,27.2365194 C37.0801182,27.0797047 37.6289615,26.7190362 38.0805879,26.1545032 C39.0214763,24.9250758 39.1845611,23.6015794 38.5698474,22.1839744 C38.0429499,21.1552698 37.2777056,20.5970178 36.2740914,20.5092015 C35.2704772,20.4213853 34.3986004,20.8290974 33.6584349,21.7323502 C33.4075314,22.07107 33.2162203,22.4505559 33.0844959,22.8708194 C32.9527715,23.2910829 32.8869103,23.7834737 32.8869103,24.3480067 L32.8869103,24.3480067 Z M51.0835996,34.7165442 C51.0083285,33.8760173 50.9236498,33.0417755 50.829561,32.2137937 C50.7354721,31.385812 50.6131585,30.5578427 50.4626164,29.729861 C50.2493483,28.3624366 49.4903765,27.4591974 48.185678,27.0201162 C47.8218679,26.8821192 47.4862894,26.8256668 47.1789325,26.8507571 C46.8715757,26.8758475 46.5610872,27.0201148 46.2474577,27.2835636 C45.8209217,27.6599189 45.3567571,27.9327724 44.85495,28.1021323 C44.3531429,28.2714922 43.8137083,28.3059909 43.2366302,28.2056295 C42.8351845,28.1303585 42.461971,27.9986361 42.1169787,27.8104584 C41.7719863,27.6222807 41.4426803,27.4027434 41.1290509,27.1518399 C41.0035991,27.0389333 40.8687404,26.9448459 40.7244709,26.8695748 C40.5802014,26.7943037 40.4139802,26.7629412 40.2258026,26.7754864 C39.4605467,26.8633027 38.8144798,27.1361562 38.2875823,27.5940552 C37.7606849,28.0519542 37.4031527,28.6509774 37.214975,29.3911429 C37.0142522,30.2693053 36.8668485,31.1537271 36.7727597,32.0444347 C36.6786709,32.9351423 36.5939922,33.8258366 36.5187211,34.7165442 L51.0835996,34.7165442 Z M43.189586,18.7309315 C42.0040667,18.8375655 41.1039637,19.4993137 40.48925,20.7161959 C40.1254398,21.5441776 39.9937175,22.3501932 40.0940789,23.1342668 C40.1944403,23.9183404 40.52061,24.6679035 41.0725978,25.3829787 C41.5994953,26.0478731 42.2392898,26.4712665 42.9920004,26.6531716 C43.7447111,26.8350766 44.478593,26.750398 45.1936681,26.399133 C45.8836529,26.0353228 46.3791799,25.5711582 46.6802642,25.0066252 C46.9813485,24.4420922 47.1444333,23.8587502 47.1695237,23.2565817 C47.1695237,22.5916873 47.0942538,22.0146178 46.9437116,21.5253558 C46.7931695,21.0360939 46.5673597,20.5907468 46.2662754,20.1893011 C45.4006582,19.1104158 44.3751053,18.6242975 43.189586,18.7309315 Z M35.4084784,34.6224558 C35.4210236,34.3715523 35.4461136,34.126925 35.4837491,33.8885666 C35.546475,33.1107656 35.6248812,32.3235675 35.71897,31.5269487 C35.8130589,30.7303299 35.95419,29.9368593 36.1423677,29.1465131 C36.1800032,28.9708807 36.2239107,28.8077958 36.2740914,28.6572537 L36.236456,28.6572537 C35.7471941,28.7450699 35.289302,28.7105712 34.8627659,28.5537565 C34.4362299,28.3969417 34.0410627,28.1491782 33.6772526,27.8104584 C33.4138039,27.5595549 33.1503591,27.4246962 32.8869103,27.4058785 C32.6234616,27.3870607 32.3349269,27.4403769 32.0212974,27.5658287 C31.4693096,27.7790967 31.0333712,28.0895852 30.7134692,28.4973034 C30.3935671,28.9050217 30.1834386,29.4350475 30.0830772,30.0873968 C29.8447188,31.6179084 29.6753614,33.1609421 29.575,34.7165442 L35.3896608,34.7165442 L35.4084784,34.6224558 Z" id="Icon" sketch:type="MSShapeGroup"></path>
            </g>
        </g>
    </g>
</svg>