<?xml version="1.0" encoding="UTF-8" standalone="no"?>
<svg width="17px" height="17px" viewBox="0 0 17 17" version="1.1" xmlns="http://www.w3.org/2000/svg" xmlns:xlink="http://www.w3.org/1999/xlink" xmlns:sketch="http://www.bohemiancoding.com/sketch/ns">
    <!-- Generator: Sketch 3.5.2 (25235) - http://www.bohemiancoding.com/sketch -->
    <title>icon-edit</title>
    <desc>Created with Sketch.</desc>
    <defs></defs>
    <g id="Page-1" stroke="none" stroke-width="1" fill="none" fill-rule="evenodd" sketch:type="MSPage">
        <g id="Success-Plan---Intent---Business-case" sketch:type="MSArtboardGroup" transform="translate(-891.000000, -922.000000)">
            <g id="Content---Panel" sketch:type="MSLayerGroup" transform="translate(292.000000, 199.000000)">
                <g id="Form" transform="translate(20.000000, 406.000000)" sketch:type="MSShapeGroup">
                    <g id="Table" transform="translate(20.000000, 250.000000)">
                        <g id="Header-Copy" transform="translate(0.000000, 50.000000)" stroke="#EAEAEA">
                            <rect id="Rectangle-670-Copy-4" x="548.552352" y="0" width="70.447648" height="50"></rect>
                        </g>
                        <path d="M574.483873,72.9370229 L574.483873,83.3605622 L559.819848,83.3605622 L559.819848,70.7312927 L568.186215,70.7312927 L566.721643,72.2928716 L561.28442,72.2928716 L561.28442,81.7989833 L573.019301,81.7989833 L573.019301,74.6157202 L573.73328,73.8349308 C574.136039,73.379468 574.386234,73.0801683 574.483873,72.9370229 L574.483873,72.9370229 Z M567.215936,78.7734241 C567.130502,78.8645167 567.032865,78.9100623 566.923021,78.9100623 C566.813178,78.9100623 566.715541,78.8645167 566.630107,78.7734241 L564.726164,76.7433715 C564.64073,76.6522789 564.598014,76.5481747 564.598014,76.4310557 C564.598014,76.3139367 564.64073,76.2098325 564.726164,76.1187399 L570.840751,69.6186677 C570.91398,69.5275751 571.008566,69.4820295 571.124512,69.4820295 C571.240457,69.4820295 571.335043,69.5275751 571.408272,69.6186677 L573.330523,71.6487203 C573.403752,71.7398128 573.440366,71.8439171 573.440366,71.9610361 C573.440366,72.0781551 573.403752,72.1822593 573.330523,72.2733518 L567.215936,78.7734241 Z M575.069702,70.3213782 C574.996473,70.425484 574.91104,70.539348 574.813402,70.6629736 C574.715763,70.7865992 574.624228,70.8907034 574.538795,70.9752894 C574.453361,71.0598753 574.355724,71.1021677 574.24588,71.1021677 C574.136037,71.1021677 574.0384,71.0566221 573.952966,70.9655295 L572.049023,68.9354769 C571.963589,68.8443843 571.920873,68.7402801 571.920873,68.6231611 C571.920873,68.5060421 571.960538,68.4051911 572.039869,68.3206052 C572.1192,68.2360193 572.216837,68.1384215 572.332783,68.0278092 C572.448729,67.9171968 572.55552,67.8228523 572.653158,67.744773 C572.677568,67.6797069 572.903354,67.5788559 573.330523,67.4422171 C573.757692,67.3055782 574.25198,67.4975204 574.813402,68.0180493 C575.301595,68.6296708 575.481613,69.1599516 575.353463,69.6089078 C575.225312,70.057864 575.130726,70.2953517 575.069702,70.3213782 L575.069702,70.3213782 Z M563.682656,80.2178846 C563.572813,80.2308978 563.487381,80.208125 563.426356,80.1495655 C563.365332,80.091006 563.347025,80.0031681 563.371435,79.8860491 L563.700964,78.5196675 C563.725373,78.4025485 563.774192,78.3342301 563.847421,78.3147103 C563.92065,78.2951905 563.99998,78.3244698 564.085414,78.4025491 L565.055692,79.4566149 C565.141126,79.5346942 565.174689,79.6127724 565.156382,79.6908517 C565.138075,79.7689311 565.074,79.8274897 564.964157,79.8665293 L563.682656,80.2178846 Z" id="icon" fill="#1D71DA"></path>
                    </g>
                </g>
            </g>
        </g>
    </g>
</svg>