<?xml version="1.0" encoding="UTF-8" standalone="no"?>
<svg width="17px" height="14px" viewBox="0 0 17 14" version="1.1" xmlns="http://www.w3.org/2000/svg" xmlns:xlink="http://www.w3.org/1999/xlink" xmlns:sketch="http://www.bohemiancoding.com/sketch/ns">
    <!-- Generator: Sketch 3.5.2 (25235) - http://www.bohemiancoding.com/sketch -->
    <title>icon-monitor</title>
    <desc>Created with Sketch.</desc>
    <defs></defs>
    <g id="Page-1" stroke="none" stroke-width="1" fill="none" fill-rule="evenodd" sketch:type="MSPage">
        <g id="Welcome---Partners-&amp;-Field-Ellipsis" sketch:type="MSArtboardGroup" transform="translate(-328.000000, -646.000000)" fill="#333333">
            <g id="Content---Panel" sketch:type="MSLayerGroup" transform="translate(292.000000, 199.000000)">
                <g id="Panel---Reports" transform="translate(20.000000, 279.000000)" sketch:type="MSShapeGroup">
                    <g id="Data" transform="translate(16.000000, 164.000000)">
                        <path d="M15.5286486,4 L0.766846847,4 C0.549572487,4 0.367448182,4.07351525 0.220468468,4.22054795 C0.0734887546,4.36758064 -1.77368964e-16,4.5497706 0,4.76712329 L0,14.1452055 C-1.77368964e-16,14.3625582 0.0734887546,14.5447481 0.220468468,14.6917808 C0.367448182,14.8388135 0.549572487,14.9123288 0.766846847,14.9123288 L7.3809009,14.9123288 L7.3809009,16.4657534 L4.23682883,16.4657534 L4.23682883,18 L12.0586667,18 L12.0586667,16.4657534 L8.91459459,16.4657534 L8.91459459,14.9123288 L15.5286486,14.9123288 C15.745923,14.9123288 15.9280473,14.8388135 16.075027,14.6917808 C16.2220067,14.5447481 16.2954955,14.3625582 16.2954955,14.1452055 L16.2954955,4.76712329 C16.2954955,4.5497706 16.2220067,4.36758064 16.075027,4.22054795 C15.9280473,4.07351525 15.745923,4 15.5286486,4 L15.5286486,4 Z M14.7618018,13.3780822 L1.53369369,13.3780822 L1.53369369,5.53424658 L14.7618018,5.53424658 L14.7618018,13.3780822 Z" id="icon"></path>
                    </g>
                </g>
            </g>
        </g>
    </g>
</svg>