<?xml version="1.0" encoding="UTF-8" standalone="no"?>
<svg width="17px" height="14px" viewBox="0 0 17 14" version="1.1" xmlns="http://www.w3.org/2000/svg" xmlns:xlink="http://www.w3.org/1999/xlink" xmlns:sketch="http://www.bohemiancoding.com/sketch/ns">
    <!-- Generator: Sketch 3.5.2 (25235) - http://www.bohemiancoding.com/sketch -->
    <title>icon-monitor-checked</title>
    <desc>Created with Sketch.</desc>
    <defs></defs>
    <g id="Page-1" stroke="none" stroke-width="1" fill="none" fill-rule="evenodd" sketch:type="MSPage">
        <g id="Welcome---Partners-&amp;-Field-Ellipsis" sketch:type="MSArtboardGroup" transform="translate(-647.000000, -646.000000)">
            <g id="Content---Panel" sketch:type="MSLayerGroup" transform="translate(292.000000, 199.000000)">
                <g id="Panel---Reports" transform="translate(20.000000, 279.000000)" sketch:type="MSShapeGroup">
                    <g id="Data" transform="translate(16.000000, 164.000000)">
                        <path d="M334.528649,4 L319.766847,4 C319.549572,4 319.367448,4.07351525 319.220468,4.22054795 C319.073489,4.36758064 319,4.5497706 319,4.76712329 L319,14.1452055 C319,14.3625582 319.073489,14.5447481 319.220468,14.6917808 C319.367448,14.8388135 319.549572,14.9123288 319.766847,14.9123288 L326.380901,14.9123288 L326.380901,16.4657534 L323.236829,16.4657534 L323.236829,18 L331.058667,18 L331.058667,16.4657534 L327.914595,16.4657534 L327.914595,14.9123288 L334.528649,14.9123288 C334.745923,14.9123288 334.928047,14.8388135 335.075027,14.6917808 C335.222007,14.5447481 335.295495,14.3625582 335.295495,14.1452055 L335.295495,4.76712329 C335.295495,4.5497706 335.222007,4.36758064 335.075027,4.22054795 C334.928047,4.07351525 334.745923,4 334.528649,4 L334.528649,4 Z M333.761802,13.3780822 L320.533694,13.3780822 L320.533694,5.53424658 L333.761802,5.53424658 L333.761802,13.3780822 Z" id="icon" fill="#333333"></path>
                        <path d="M323.055476,9.66605041 C323.01541,9.62598408 322.997046,9.57757133 323.000385,9.5208107 C323.003724,9.46405008 323.025426,9.41563733 323.065493,9.375571 L323.886848,8.61431463 C323.920237,8.58092603 323.965311,8.56423198 324.022071,8.56423198 C324.078832,8.56423198 324.127245,8.58426484 324.167311,8.62433117 L326.411014,11.0483317 L330.277395,6.08013225 C330.310784,6.02671048 330.360866,6 330.427643,6 C330.474387,6 330.517792,6.01335524 330.557858,6.04006612 L331.439313,6.73120678 C331.486057,6.76459538 331.511098,6.80799991 331.514437,6.86142168 C331.517776,6.91484345 331.502751,6.9649256 331.469362,7.01166965 L326.511179,13.3922 L323.055476,9.66605041 Z" id="Icon" fill="#000000"></path>
                    </g>
                </g>
            </g>
        </g>
    </g>
</svg>