<?xml version="1.0" encoding="UTF-8" standalone="no"?>
<svg width="15px" height="16px" viewBox="0 0 15 16" version="1.1" xmlns="http://www.w3.org/2000/svg" xmlns:xlink="http://www.w3.org/1999/xlink" xmlns:sketch="http://www.bohemiancoding.com/sketch/ns">
    <!-- Generator: Sketch 3.5.2 (25235) - http://www.bohemiancoding.com/sketch -->
    <title>icon</title>
    <desc>Created with Sketch.</desc>
    <defs></defs>
    <g id="Page-1" stroke="none" stroke-width="1" fill="none" fill-rule="evenodd" sketch:type="MSPage">
        <g id="Welcome---Partners-&amp;-Field" sketch:type="MSArtboardGroup" transform="translate(-321.000000, -431.000000)" fill="#A6A6A6">
            <g id="Search" sketch:type="MSLayerGroup" transform="translate(312.000000, 423.000000)">
                <path d="M18.276873,8.39735917 C16.7249289,8.43210419 15.4306965,8.96774849 14.3941368,10.0043081 C13.3575772,11.0408678 12.8219329,12.3351002 12.7871878,13.8870443 C12.7987695,14.8714864 13.0361902,15.7690526 13.4994571,16.5797696 L9.39956569,20.7317783 C9.13318723,21.0213201 9,21.3542882 9,21.7306925 C9,22.1070969 9.13318723,22.4342742 9.39956569,22.7122343 C9.53854575,22.8512144 9.69489598,22.9525525 9.86862106,23.0162517 C10.0423461,23.0799509 10.218964,23.1118 10.3984799,23.1118 C10.5779958,23.1118 10.7546137,23.0770555 10.9283388,23.0075655 C11.1020638,22.9380754 11.2526233,22.8396327 11.3800217,22.7122343 L15.4625407,18.577598 C15.8678992,18.8323948 16.3108916,19.0292803 16.7915309,19.1682604 C17.2721703,19.3072404 17.7672794,19.3767294 18.276873,19.3767294 C19.828817,19.3419844 21.1230495,18.8063401 22.1596091,17.7697805 C23.1961688,16.7332208 23.7318131,15.4389884 23.7665581,13.8870443 C23.7318131,12.3351002 23.1961688,11.0408678 22.1596091,10.0043081 C21.1230495,8.96774849 19.828817,8.43210419 18.276873,8.39735917 L18.276873,8.39735917 Z M15.5928339,16.5623972 C14.880561,15.8443335 14.5128485,14.9525581 14.4896851,13.8870443 C14.5128485,12.8099488 14.880561,11.915278 15.5928339,11.2030052 C16.3051067,10.4907324 17.1997775,10.1230198 18.276873,10.0998565 C19.3423868,10.1230198 20.2341622,10.4907324 20.9522258,11.2030052 C21.6702895,11.915278 22.0408975,12.8099488 22.0640608,13.8870443 C22.0408975,14.9525581 21.6702895,15.8443335 20.9522258,16.5623972 C20.2341622,17.2804608 19.3423868,17.6510688 18.276873,17.6742321 C17.1997775,17.6510688 16.3051067,17.2804608 15.5928339,16.5623972 Z" id="icon" sketch:type="MSShapeGroup"></path>
            </g>
        </g>
    </g>
</svg>